<mxfile host="app.diagrams.net" agent="Mozilla/5.0 (Windows NT 10.0; Win64; x64) AppleWebKit/537.36 (KHTML, like Gecko) Chrome/139.0.0.0 Safari/537.36" version="28.2.3">
  <diagram id="AWS" name="AWS Architecture">
    <mxGraphModel dx="2377" dy="1238" grid="1" gridSize="10" guides="1" tooltips="1" connect="1" arrows="1" fold="1" page="1" pageScale="1" pageWidth="827" pageHeight="1169" math="0" shadow="0" adaptiveColors="none">
      <root>
        <mxCell id="0" />
        <mxCell id="1" parent="0" />
        <mxCell id="3RfBEz2x98lfpEqL8iX9-23" value="" style="whiteSpace=wrap;html=1;shape=mxgraph.basic.cloud_rect" vertex="1" parent="1">
          <mxGeometry x="7.25" y="410" width="754.75" height="620" as="geometry" />
        </mxCell>
        <mxCell id="3RfBEz2x98lfpEqL8iX9-20" value="" style="edgeStyle=orthogonalEdgeStyle;rounded=0;orthogonalLoop=1;jettySize=auto;html=1;" edge="1" parent="1" source="3RfBEz2x98lfpEqL8iX9-1" target="3RfBEz2x98lfpEqL8iX9-2">
          <mxGeometry relative="1" as="geometry" />
        </mxCell>
        <mxCell id="3RfBEz2x98lfpEqL8iX9-1" value="USUARIA&lt;div&gt;&lt;br&gt;&lt;/div&gt;" style="verticalLabelPosition=bottom;sketch=0;html=1;fillColor=#A153A0;verticalAlign=top;align=center;pointerEvents=1;shape=mxgraph.cisco_safe.design.actor_1;" vertex="1" parent="1">
          <mxGeometry x="40" y="130" width="106.5" height="140" as="geometry" />
        </mxCell>
        <mxCell id="3RfBEz2x98lfpEqL8iX9-5" style="edgeStyle=orthogonalEdgeStyle;rounded=0;orthogonalLoop=1;jettySize=auto;html=1;" edge="1" parent="1" source="3RfBEz2x98lfpEqL8iX9-2" target="3RfBEz2x98lfpEqL8iX9-4">
          <mxGeometry relative="1" as="geometry" />
        </mxCell>
        <mxCell id="3RfBEz2x98lfpEqL8iX9-2" value="SISTEMA" style="verticalLabelPosition=bottom;aspect=fixed;html=1;shape=mxgraph.salesforce.web;fillColorStyles=fillColor2,fillColor3,fillColor4;fillColor2=#032d60;fillColor3=#0d9dda;fillColor4=#ffffff;fillColor=none;strokeColor=none;" vertex="1" parent="1">
          <mxGeometry x="201" y="235" width="82.28" height="65" as="geometry" />
        </mxCell>
        <mxCell id="3RfBEz2x98lfpEqL8iX9-8" style="edgeStyle=orthogonalEdgeStyle;rounded=0;orthogonalLoop=1;jettySize=auto;html=1;" edge="1" parent="1" source="3RfBEz2x98lfpEqL8iX9-4" target="3RfBEz2x98lfpEqL8iX9-7">
          <mxGeometry relative="1" as="geometry" />
        </mxCell>
        <mxCell id="3RfBEz2x98lfpEqL8iX9-9" style="edgeStyle=orthogonalEdgeStyle;rounded=0;orthogonalLoop=1;jettySize=auto;html=1;" edge="1" parent="1" source="3RfBEz2x98lfpEqL8iX9-4" target="3RfBEz2x98lfpEqL8iX9-6">
          <mxGeometry relative="1" as="geometry" />
        </mxCell>
        <mxCell id="3RfBEz2x98lfpEqL8iX9-4" value="EC2&lt;div&gt;VM&lt;/div&gt;&lt;div&gt;&lt;br&gt;&lt;/div&gt;" style="outlineConnect=0;dashed=0;verticalLabelPosition=bottom;verticalAlign=top;align=center;html=1;shape=mxgraph.aws3.ec2;fillColor=#F58534;gradientColor=none;" vertex="1" parent="1">
          <mxGeometry x="124.5" y="460" width="76.5" height="93" as="geometry" />
        </mxCell>
        <mxCell id="3RfBEz2x98lfpEqL8iX9-11" style="edgeStyle=orthogonalEdgeStyle;rounded=0;orthogonalLoop=1;jettySize=auto;html=1;" edge="1" parent="1" source="3RfBEz2x98lfpEqL8iX9-6" target="3RfBEz2x98lfpEqL8iX9-10">
          <mxGeometry relative="1" as="geometry" />
        </mxCell>
        <mxCell id="3RfBEz2x98lfpEqL8iX9-6" value="EBS - 2&lt;div&gt;&lt;br&gt;&lt;/div&gt;" style="outlineConnect=0;dashed=0;verticalLabelPosition=bottom;verticalAlign=top;align=center;html=1;shape=mxgraph.aws3.volume;fillColor=#E05243;gradientColor=none;" vertex="1" parent="1">
          <mxGeometry x="230" y="610" width="52.5" height="75" as="geometry" />
        </mxCell>
        <mxCell id="3RfBEz2x98lfpEqL8iX9-25" style="edgeStyle=orthogonalEdgeStyle;rounded=0;orthogonalLoop=1;jettySize=auto;html=1;" edge="1" parent="1" source="3RfBEz2x98lfpEqL8iX9-7" target="3RfBEz2x98lfpEqL8iX9-10">
          <mxGeometry relative="1" as="geometry" />
        </mxCell>
        <mxCell id="3RfBEz2x98lfpEqL8iX9-7" value="EBS - 1" style="outlineConnect=0;dashed=0;verticalLabelPosition=bottom;verticalAlign=top;align=center;html=1;shape=mxgraph.aws3.volume;fillColor=#E05243;gradientColor=none;" vertex="1" parent="1">
          <mxGeometry x="88.5" y="610" width="52.5" height="75" as="geometry" />
        </mxCell>
        <mxCell id="3RfBEz2x98lfpEqL8iX9-10" value="LAMBDA&lt;div&gt;&lt;br&gt;&lt;/div&gt;&lt;div&gt;FUNÇÃO PARA MOVER&lt;/div&gt;&lt;div&gt;ARQUIVOS&lt;/div&gt;" style="outlineConnect=0;dashed=0;verticalLabelPosition=bottom;verticalAlign=top;align=center;html=1;shape=mxgraph.aws3.lambda;fillColor=#F58534;gradientColor=none;" vertex="1" parent="1">
          <mxGeometry x="141" y="830" width="76.5" height="93" as="geometry" />
        </mxCell>
        <mxCell id="3RfBEz2x98lfpEqL8iX9-12" value="S3 GLACIER" style="sketch=0;points=[[0,0,0],[0.25,0,0],[0.5,0,0],[0.75,0,0],[1,0,0],[0,1,0],[0.25,1,0],[0.5,1,0],[0.75,1,0],[1,1,0],[0,0.25,0],[0,0.5,0],[0,0.75,0],[1,0.25,0],[1,0.5,0],[1,0.75,0]];outlineConnect=0;fontColor=#232F3E;fillColor=#7AA116;strokeColor=#ffffff;dashed=0;verticalLabelPosition=bottom;verticalAlign=top;align=center;html=1;fontSize=12;fontStyle=0;aspect=fixed;shape=mxgraph.aws4.resourceIcon;resIcon=mxgraph.aws4.glacier;" vertex="1" parent="1">
          <mxGeometry x="630" y="710" width="78" height="78" as="geometry" />
        </mxCell>
        <mxCell id="3RfBEz2x98lfpEqL8iX9-13" value="S3 STANDARD" style="sketch=0;points=[[0,0,0],[0.25,0,0],[0.5,0,0],[0.75,0,0],[1,0,0],[0,1,0],[0.25,1,0],[0.5,1,0],[0.75,1,0],[1,1,0],[0,0.25,0],[0,0.5,0],[0,0.75,0],[1,0.25,0],[1,0.5,0],[1,0.75,0]];outlineConnect=0;fontColor=#232F3E;fillColor=#7AA116;strokeColor=#ffffff;dashed=0;verticalLabelPosition=bottom;verticalAlign=top;align=center;html=1;fontSize=12;fontStyle=0;aspect=fixed;shape=mxgraph.aws4.resourceIcon;resIcon=mxgraph.aws4.s3;" vertex="1" parent="1">
          <mxGeometry x="631" y="855" width="78" height="78" as="geometry" />
        </mxCell>
        <mxCell id="3RfBEz2x98lfpEqL8iX9-14" style="edgeStyle=orthogonalEdgeStyle;rounded=0;orthogonalLoop=1;jettySize=auto;html=1;entryX=0;entryY=0.5;entryDx=0;entryDy=0;entryPerimeter=0;" edge="1" parent="1" source="3RfBEz2x98lfpEqL8iX9-10" target="3RfBEz2x98lfpEqL8iX9-12">
          <mxGeometry relative="1" as="geometry" />
        </mxCell>
        <mxCell id="3RfBEz2x98lfpEqL8iX9-15" style="edgeStyle=orthogonalEdgeStyle;rounded=0;orthogonalLoop=1;jettySize=auto;html=1;entryX=0;entryY=0.75;entryDx=0;entryDy=0;entryPerimeter=0;" edge="1" parent="1" source="3RfBEz2x98lfpEqL8iX9-10" target="3RfBEz2x98lfpEqL8iX9-13">
          <mxGeometry relative="1" as="geometry" />
        </mxCell>
        <mxCell id="3RfBEz2x98lfpEqL8iX9-19" value="" style="edgeStyle=orthogonalEdgeStyle;rounded=0;orthogonalLoop=1;jettySize=auto;html=1;" edge="1" parent="1" source="3RfBEz2x98lfpEqL8iX9-16" target="3RfBEz2x98lfpEqL8iX9-10">
          <mxGeometry relative="1" as="geometry" />
        </mxCell>
        <mxCell id="3RfBEz2x98lfpEqL8iX9-16" value="CLOUDWATCH" style="sketch=0;points=[[0,0,0],[0.25,0,0],[0.5,0,0],[0.75,0,0],[1,0,0],[0,1,0],[0.25,1,0],[0.5,1,0],[0.75,1,0],[1,1,0],[0,0.25,0],[0,0.5,0],[0,0.75,0],[1,0.25,0],[1,0.5,0],[1,0.75,0]];points=[[0,0,0],[0.25,0,0],[0.5,0,0],[0.75,0,0],[1,0,0],[0,1,0],[0.25,1,0],[0.5,1,0],[0.75,1,0],[1,1,0],[0,0.25,0],[0,0.5,0],[0,0.75,0],[1,0.25,0],[1,0.5,0],[1,0.75,0]];outlineConnect=0;fontColor=#232F3E;fillColor=#E7157B;strokeColor=#ffffff;dashed=0;verticalLabelPosition=bottom;verticalAlign=top;align=center;html=1;fontSize=12;fontStyle=0;aspect=fixed;shape=mxgraph.aws4.resourceIcon;resIcon=mxgraph.aws4.cloudwatch_2;" vertex="1" parent="1">
          <mxGeometry x="30" y="770" width="78" height="78" as="geometry" />
        </mxCell>
        <mxCell id="3RfBEz2x98lfpEqL8iX9-21" value="&lt;h1 style=&quot;margin-top: 0px;&quot;&gt;&lt;font style=&quot;font-size: 15px;&quot;&gt;&amp;gt; 90 DIAS&lt;/font&gt;&lt;/h1&gt;" style="text;html=1;whiteSpace=wrap;overflow=hidden;rounded=0;rotation=0;" vertex="1" parent="1">
          <mxGeometry x="540" y="710" width="80" height="40" as="geometry" />
        </mxCell>
        <mxCell id="3RfBEz2x98lfpEqL8iX9-22" value="&lt;h1 style=&quot;margin-top: 0px;&quot;&gt;&lt;font style=&quot;font-size: 15px;&quot;&gt;&amp;lt; 90 DIAS&lt;/font&gt;&lt;/h1&gt;" style="text;html=1;whiteSpace=wrap;overflow=hidden;rounded=0;rotation=0;" vertex="1" parent="1">
          <mxGeometry x="540" y="908" width="80" height="40" as="geometry" />
        </mxCell>
        <mxCell id="3RfBEz2x98lfpEqL8iX9-24" value="&lt;font style=&quot;font-size: 27px;&quot;&gt;AWS&lt;/font&gt;" style="ellipse;shape=cloud;whiteSpace=wrap;html=1;" vertex="1" parent="1">
          <mxGeometry x="560" y="450" width="120" height="80" as="geometry" />
        </mxCell>
        <mxCell id="3RfBEz2x98lfpEqL8iX9-26" value="" style="edgeStyle=orthogonalEdgeStyle;rounded=0;orthogonalLoop=1;jettySize=auto;html=1;" edge="1" parent="1" source="3RfBEz2x98lfpEqL8iX9-27" target="3RfBEz2x98lfpEqL8iX9-28">
          <mxGeometry relative="1" as="geometry" />
        </mxCell>
        <mxCell id="3RfBEz2x98lfpEqL8iX9-27" value="USUARIA&lt;div&gt;&lt;br&gt;&lt;/div&gt;" style="verticalLabelPosition=bottom;sketch=0;html=1;fillColor=#A153A0;verticalAlign=top;align=center;pointerEvents=1;shape=mxgraph.cisco_safe.design.actor_1;" vertex="1" parent="1">
          <mxGeometry x="433.5" y="130" width="106.5" height="140" as="geometry" />
        </mxCell>
        <mxCell id="3RfBEz2x98lfpEqL8iX9-28" value="SISTEMA" style="verticalLabelPosition=bottom;aspect=fixed;html=1;shape=mxgraph.salesforce.web;fillColorStyles=fillColor2,fillColor3,fillColor4;fillColor2=#032d60;fillColor3=#0d9dda;fillColor4=#ffffff;fillColor=none;strokeColor=none;" vertex="1" parent="1">
          <mxGeometry x="320" y="235" width="82.28" height="65" as="geometry" />
        </mxCell>
        <mxCell id="3RfBEz2x98lfpEqL8iX9-29" style="edgeStyle=orthogonalEdgeStyle;rounded=0;orthogonalLoop=1;jettySize=auto;html=1;entryX=1;entryY=0.21;entryDx=0;entryDy=0;entryPerimeter=0;" edge="1" parent="1" source="3RfBEz2x98lfpEqL8iX9-28" target="3RfBEz2x98lfpEqL8iX9-4">
          <mxGeometry relative="1" as="geometry">
            <Array as="points">
              <mxPoint x="361" y="320" />
              <mxPoint x="300" y="320" />
              <mxPoint x="300" y="480" />
            </Array>
          </mxGeometry>
        </mxCell>
      </root>
    </mxGraphModel>
  </diagram>
</mxfile>
